<?xml version="1.0" encoding="UTF-8"?>
<svg version="1.1" xmlns="http://www.w3.org/2000/svg" width="608" height="642">
<path d="M0 0 C200.64 0 401.28 0 608 0 C608 211.86 608 423.72 608 642 C407.36 642 206.72 642 0 642 C0 430.14 0 218.28 0 0 Z " fill="#FCFCFC" transform="translate(0,0)"/>
<path d="M0 0 C0.93086426 0.00149048 1.86172852 0.00298096 2.82080078 0.0045166 C16.95626782 0.04523355 30.71024728 0.64616499 44.625 3.3125 C45.36830566 3.44108398 46.11161133 3.56966797 46.87744141 3.70214844 C97.49582205 12.51411902 146.04121865 43.04456161 177.625 83.3125 C178.39199219 84.2509375 179.15898437 85.189375 179.94921875 86.15625 C212.04279838 126.26030441 227.78424685 176.39759946 227.9375 227.375 C227.94011841 228.21098724 227.94273682 229.04697449 227.94543457 229.90829468 C227.9503805 244.72154122 226.61816935 258.77501863 223.625 273.3125 C223.34466196 274.80721855 223.06468215 276.30200436 222.78515625 277.796875 C214.79218766 317.79001167 192.82397645 355.28005626 164.625 384.3125 C164.07585937 384.88742187 163.52671875 385.46234375 162.9609375 386.0546875 C154.75791846 394.63227362 146.25152014 402.36291304 136.625 409.3125 C135.97644043 409.78365234 135.32788086 410.25480469 134.65966797 410.74023438 C114.72133282 425.04807919 92.84886968 435.52926813 69.625 443.3125 C68.944375 443.54259766 68.26375 443.77269531 67.5625 444.00976562 C50.16723325 449.76444978 31.606419 452.39208977 13.33203125 452.55078125 C12.39124725 452.56062042 11.45046326 452.57045959 10.48117065 452.58059692 C-28.23073064 452.90258763 -28.23073064 452.90258763 -46.375 448.3125 C-47.38143555 448.07112305 -48.38787109 447.82974609 -49.42480469 447.58105469 C-101.75503167 434.85467645 -149.45831307 402.51084499 -180.375 358.3125 C-180.81312012 357.7030957 -181.25124023 357.09369141 -181.70263672 356.46582031 C-193.95155817 339.4033363 -202.58572845 320.7549775 -209.45410156 300.96435547 C-210.23745175 298.70858936 -211.04743526 296.46532101 -211.8671875 294.22265625 C-214.79862637 285.69235121 -216.50886323 277.04951043 -218.125 268.1875 C-218.33608398 267.0315332 -218.54716797 265.87556641 -218.76464844 264.68457031 C-228.81718951 206.49867989 -215.46735553 145.55607971 -181.64086914 97.11621094 C-165.76868174 74.98200433 -147.34743357 56.37556452 -125.375 40.3125 C-124.76172852 39.86374512 -124.14845703 39.41499023 -123.51660156 38.95263672 C-97.7462029 20.35817083 -66.96206525 7.84074231 -35.64257812 2.69311523 C-33.99144913 2.4159716 -32.34469053 2.11240246 -30.70117188 1.79321289 C-20.47847435 -0.04127343 -10.34982733 -0.04077982 0 0 Z " fill="#080708" transform="translate(299.375,20.6875)"/>
<path d="M0 0 C0.73138184 -0.0033284 1.46276367 -0.0066568 2.21630859 -0.01008606 C3.75927102 -0.01512219 5.30224421 -0.01749542 6.84521484 -0.01733398 C9.15351403 -0.01949937 11.46131767 -0.03763181 13.76953125 -0.05664062 C23.42739965 -0.09420098 32.63891453 0.59766402 42.1875 2.16796875 C43.22922363 2.33433838 44.27094727 2.50070801 45.34423828 2.67211914 C79.75513505 8.44269954 113.94056753 22.7665775 140.1875 46.16796875 C141.04601562 46.92980469 141.90453125 47.69164062 142.7890625 48.4765625 C144.48101275 49.99216144 146.16621891 51.51533159 147.84375 53.046875 C149.98674312 54.98628378 152.17094638 56.86126174 154.375 58.73046875 C158.38295209 62.23442687 161.77609703 66.09109703 165.1875 70.16796875 C165.94933594 71.04195313 166.71117187 71.9159375 167.49609375 72.81640625 C202.79571473 113.89833644 218.57692577 168.28943838 214.9140625 221.94921875 C214.12111012 230.91254023 212.44800443 239.76490428 210.8125 248.60546875 C210.61567627 249.68376953 210.41885254 250.76207031 210.21606445 251.87304688 C210.01327881 252.91783203 209.81049316 253.96261719 209.6015625 255.0390625 C209.33786865 256.4146936 209.33786865 256.4146936 209.06884766 257.81811523 C207.78329426 262.70428646 205.91414196 267.41970335 204.1875 272.16796875 C171.8475 272.16796875 139.5075 272.16796875 106.1875 272.16796875 C108.59267046 269.76279829 110.62156152 269.54694687 113.8515625 268.77734375 C127.60892212 265.18846733 136.76390358 257.16257593 144.1875 245.16796875 C150.82435008 233.2769457 152.25560473 218.57544049 149.34765625 205.34765625 C144.7910256 191.38626268 136.14233938 180.59919625 123.125 173.85546875 C114.03137335 169.400202 106.78953631 168.90056398 96.75 169.04296875 C95.54150391 169.05199219 94.33300781 169.06101563 93.08789062 169.0703125 C90.12088722 169.09376707 87.15429857 169.12659081 84.1875 169.16796875 C80.24334392 161.57053944 76.8106042 153.80936814 73.5 145.91796875 C73.01466797 144.77328125 72.52933594 143.62859375 72.02929688 142.44921875 C69.89953595 137.39654456 67.8719118 132.38940297 66.1875 127.16796875 C69.44019451 125.54162149 72.992285 125.98343404 76.5625 125.98046875 C77.33078125 125.96822266 78.0990625 125.95597656 78.890625 125.94335938 C86.32961514 125.92405404 86.32961514 125.92405404 89.1875 128.16796875 C90.25 131.54296875 90.25 131.54296875 90.1875 135.16796875 C87.75 137.29296875 87.75 137.29296875 85.1875 139.16796875 C84.76879447 141.83724996 84.76879447 141.83724996 85.1875 144.16796875 C88.08398559 144.99553606 89.91600644 145.23110679 92.875 144.54296875 C95.78860341 142.81055591 96.21021436 141.34414708 97.1875 138.16796875 C97.5175 137.83796875 97.8475 137.50796875 98.1875 137.16796875 C98.74048447 130.75334887 97.98349481 127.40028593 94.1875 122.16796875 C83.6269949 114.24758992 67.35289859 118.53620271 55.1875 120.16796875 C55.74932035 124.21307526 56.64472007 127.6665619 58.25 131.41796875 C60.1875 135.96868049 60.1875 135.96868049 60.1875 138.16796875 C51.88574636 139.45769323 43.583547 140.74449504 35.28077888 142.02767086 C31.42459603 142.62372777 27.56856843 143.22075244 23.71289062 143.82006836 C19.98498884 144.39948533 16.25668605 144.9762562 12.52810287 145.55127144 C11.11276843 145.77000243 9.6975756 145.98965196 8.28253555 146.21027946 C0.59815454 147.4077508 -7.0604832 148.51897434 -14.8125 149.16796875 C-15.67805948 147.06846289 -16.52961277 144.96317805 -17.375 142.85546875 C-17.85066406 141.68371094 -18.32632813 140.51195312 -18.81640625 139.3046875 C-19.8125 136.16796875 -19.8125 136.16796875 -18.8125 133.16796875 C-15.02086973 130.64021524 -12.00375969 130.9435384 -7.625 131.04296875 C-6.87541016 131.05199219 -6.12582031 131.06101563 -5.35351562 131.0703125 C-3.50637346 131.09384297 -1.65939588 131.12971314 0.1875 131.16796875 C-0.15694881 128.6953011 -0.15694881 128.6953011 -0.8125 126.16796875 C-3.0956244 125.02640655 -4.44729305 125.01462503 -6.98681641 124.96264648 C-7.84755768 124.94270126 -8.70829895 124.92275604 -9.59512329 124.90220642 C-10.52537323 124.88549393 -11.45562317 124.86878143 -12.4140625 124.8515625 C-13.36566254 124.8307814 -14.31726257 124.81000031 -15.29769897 124.78858948 C-18.34422432 124.72308742 -21.39083743 124.66420595 -24.4375 124.60546875 C-26.50000916 124.56228416 -28.56250937 124.51866989 -30.625 124.47460938 C-35.68740954 124.36740535 -40.74990755 124.26613973 -45.8125 124.16796875 C-44.11982109 128.91302139 -44.11982109 128.91302139 -40.98046875 132.65625 C-40.32691406 132.92824219 -39.67335937 133.20023438 -39 133.48046875 C-38.35417969 133.76535156 -37.70835937 134.05023438 -37.04296875 134.34375 C-34.70419284 135.26161339 -34.70419284 135.26161339 -31.73046875 135.87890625 C-28.8125 137.16796875 -28.8125 137.16796875 -27.1328125 140.03125 C-26.73835937 141.16949219 -26.34390625 142.30773437 -25.9375 143.48046875 C-25.52757812 144.61097656 -25.11765625 145.74148437 -24.6953125 146.90625 C-23.5941475 150.9747136 -22.99587147 153.69899924 -25.09765625 157.47973633 C-25.97744141 158.63445435 -25.97744141 158.63445435 -26.875 159.8125 C-27.50664062 160.65361328 -28.13828125 161.49472656 -28.7890625 162.36132812 C-29.45679688 163.22564453 -30.12453125 164.08996094 -30.8125 164.98046875 C-31.48023438 165.86412109 -32.14796875 166.74777344 -32.8359375 167.65820312 C-34.48432823 169.83643373 -36.1432935 172.00567409 -37.8125 174.16796875 C-38.47636719 173.89082031 -39.14023438 173.61367187 -39.82421875 173.328125 C-40.70722656 172.96589844 -41.59023437 172.60367188 -42.5 172.23046875 C-43.37011719 171.87082031 -44.24023438 171.51117188 -45.13671875 171.140625 C-55.86171388 167.24205013 -71.1775584 167.31527131 -81.875 171.04296875 C-95.96413761 177.65473398 -104.9707843 187.31357894 -111.25 201.390625 C-115.94543859 214.54763521 -115.1344809 229.28530838 -109.55859375 242.03515625 C-103.42540097 254.10100145 -94.51230804 263.24312762 -81.55078125 267.7109375 C-77.66573644 268.96887051 -73.75238163 270.09525318 -69.8125 271.16796875 C-69.8125 271.49796875 -69.8125 271.82796875 -69.8125 272.16796875 C-106.4425 272.16796875 -143.0725 272.16796875 -180.8125 272.16796875 C-198.26811381 219.80112732 -195.64561535 163.79186512 -171.125 114.04296875 C-163.8795419 99.71202166 -155.21898475 86.40862057 -144.8125 74.16796875 C-143.91204323 73.07220355 -143.01236065 71.97580187 -142.11328125 70.87890625 C-109.8961942 31.96220869 -64.15696686 8.95172461 -14.8125 1.16796875 C-13.71760254 0.98999756 -12.62270508 0.81202637 -11.49462891 0.62866211 C-7.64673488 0.14722888 -3.87047046 0.00631179 0 0 Z " fill="#FCFCFC" transform="translate(290.8125,41.83203125)"/>
<path d="M0 0 C0.93086426 0.00149048 1.86172852 0.00298096 2.82080078 0.0045166 C16.95626782 0.04523355 30.71024728 0.64616499 44.625 3.3125 C45.36830566 3.44108398 46.11161133 3.56966797 46.87744141 3.70214844 C97.49582205 12.51411902 146.04121865 43.04456161 177.625 83.3125 C178.39199219 84.2509375 179.15898437 85.189375 179.94921875 86.15625 C212.04279838 126.26030441 227.78424685 176.39759946 227.9375 227.375 C227.94011841 228.21098724 227.94273682 229.04697449 227.94543457 229.90829468 C227.9503805 244.72154122 226.61816935 258.77501863 223.625 273.3125 C223.34466196 274.80721855 223.06468215 276.30200436 222.78515625 277.796875 C214.79218766 317.79001167 192.82397645 355.28005626 164.625 384.3125 C164.07585937 384.88742187 163.52671875 385.46234375 162.9609375 386.0546875 C154.75791846 394.63227362 146.25152014 402.36291304 136.625 409.3125 C135.97644043 409.78365234 135.32788086 410.25480469 134.65966797 410.74023438 C114.72133282 425.04807919 92.84886968 435.52926813 69.625 443.3125 C68.944375 443.54259766 68.26375 443.77269531 67.5625 444.00976562 C50.16723325 449.76444978 31.606419 452.39208977 13.33203125 452.55078125 C12.39124725 452.56062042 11.45046326 452.57045959 10.48117065 452.58059692 C-28.23073064 452.90258763 -28.23073064 452.90258763 -46.375 448.3125 C-47.38143555 448.07112305 -48.38787109 447.82974609 -49.42480469 447.58105469 C-101.75503167 434.85467645 -149.45831307 402.51084499 -180.375 358.3125 C-180.81312012 357.7030957 -181.25124023 357.09369141 -181.70263672 356.46582031 C-193.95155817 339.4033363 -202.58572845 320.7549775 -209.45410156 300.96435547 C-210.23745175 298.70858936 -211.04743526 296.46532101 -211.8671875 294.22265625 C-214.79862637 285.69235121 -216.50886323 277.04951043 -218.125 268.1875 C-218.33608398 267.0315332 -218.54716797 265.87556641 -218.76464844 264.68457031 C-228.81718951 206.49867989 -215.46735553 145.55607971 -181.64086914 97.11621094 C-165.76868174 74.98200433 -147.34743357 56.37556452 -125.375 40.3125 C-124.76172852 39.86374512 -124.14845703 39.41499023 -123.51660156 38.95263672 C-97.7462029 20.35817083 -66.96206525 7.84074231 -35.64257812 2.69311523 C-33.99144913 2.4159716 -32.34469053 2.11240246 -30.70117188 1.79321289 C-20.47847435 -0.04127343 -10.34982733 -0.04077982 0 0 Z M-36.375 24.3125 C-37.40149658 24.5293042 -37.40149658 24.5293042 -38.44873047 24.75048828 C-74.01081096 32.40909994 -105.23679783 49.31095584 -132.375 73.3125 C-132.93106934 73.80008789 -133.48713867 74.28767578 -134.06005859 74.79003906 C-141.60806265 81.43921337 -148.22736725 88.31503902 -154.375 96.3125 C-155.16261719 97.28445312 -155.95023438 98.25640625 -156.76171875 99.2578125 C-178.70289897 126.74456574 -192.89982902 159.63432418 -198.375 194.3125 C-198.55160156 195.42802246 -198.72820312 196.54354492 -198.91015625 197.69287109 C-200.25042649 206.84141214 -200.77592142 215.8126665 -200.75 225.0625 C-200.74978851 225.76950043 -200.74957703 226.47650085 -200.74935913 227.20492554 C-200.70722966 241.48441871 -199.13932177 255.29343959 -196.375 269.3125 C-196.2090332 270.19083496 -196.04306641 271.06916992 -195.87207031 271.97412109 C-187.61624899 314.26666684 -163.31950834 351.18015294 -132.375 380.3125 C-131.7046875 380.97894531 -131.034375 381.64539063 -130.34375 382.33203125 C-128.3307583 383.58698806 -128.3307583 383.58698806 -125.7265625 382.76953125 C-122.30735684 381.28309336 -118.8964198 379.78298341 -115.50146484 378.24194336 C-84.2131944 364.11918988 -51.20923024 354.00472903 -18.23046875 344.6875 C-4.84670221 340.90380265 8.42653203 336.80478887 21.64440918 332.4781189 C23.11566741 331.99786456 24.58806331 331.52107973 26.06164551 331.04800415 C39.61716339 326.91266415 39.61716339 326.91266415 50.625 318.3125 C51.54384408 314.98541743 51.54384408 314.98541743 50.625 311.3125 C45.81000383 305.58218414 39.81907511 302.63029458 32.875 300.25 C31.94558594 299.92056396 31.01617187 299.59112793 30.05859375 299.25170898 C16.0012063 294.49029867 1.25254778 291.70197405 -13.375 289.3125 C0.7787839 289.0782255 14.61590472 289.18428304 28.625 291.3125 C29.97658203 291.51383545 29.97658203 291.51383545 31.35546875 291.71923828 C81.5622759 299.36713755 81.5622759 299.36713755 96.1875 315.0625 C98.75487199 319.08099529 99.01455439 321.48202562 98.625 326.3125 C93.99951335 341.07281091 76.71097506 349.72415917 64.765625 357.984375 C45.86405021 370.85169391 45.86405021 370.85169391 33.625 389.3125 C32.58028401 397.1848043 33.09861635 403.33792001 37.64453125 409.95703125 C42.28550998 415.47677518 47.97845075 421.32007144 54.625 424.3125 C87.44678225 422.6675855 122.2911969 395.61291183 145.15820312 373.71191406 C146.49377917 372.43769271 147.84752777 371.18258797 149.203125 369.9296875 C170.58115397 349.58607928 185.9165645 321.92131914 195.625 294.3125 C195.9454126 293.43440674 196.2658252 292.55631348 196.59594727 291.65161133 C199.22746224 284.18322267 200.976613 276.64720148 202.43530273 268.87670898 C202.81188132 266.87828321 203.20483847 264.88357434 203.59960938 262.88867188 C208.25143682 238.90845148 207.89293839 214.31045532 203.625 190.3125 C203.48578125 189.50264648 203.3465625 188.69279297 203.203125 187.85839844 C196.69337001 150.86430471 179.54617196 117.24034167 154.625 89.3125 C154.15529785 88.78108398 153.6855957 88.24966797 153.20166016 87.70214844 C147.68731036 81.47899882 142.07979036 75.57681295 135.625 70.3125 C134.59481373 69.43517564 133.56488947 68.55754357 132.53515625 67.6796875 C95.6522765 36.71870229 49.5624768 21.10585751 1.6875 21.0625 C0.52605972 21.06098938 0.52605972 21.06098938 -0.65884399 21.05944824 C-12.79495565 21.07010234 -24.48585093 21.69437246 -36.375 24.3125 Z " fill="#030303" transform="translate(299.375,20.6875)"/>
<path d="M0 0 C1.1130249 0.10610596 1.1130249 0.10610596 2.24853516 0.21435547 C11.07755164 0.93254137 19.85384337 1.06695561 28.7109375 1.0703125 C31.28255437 1.08014872 33.85416903 1.09057838 36.42578125 1.1015625 C40.38537534 1.11813188 44.3436618 1.12520256 48.30322266 1.09960938 C66.6719084 0.99851842 82.61574258 2.98261727 100 9 C101.2737851 9.43196938 101.2737851 9.43196938 102.57330322 9.87266541 C117.79112172 15.05823974 117.79112172 15.05823974 124 20 C125 22.8125 125 22.8125 125 25 C120.83867905 28.78418126 117.02875166 31.1449744 111.6875 33 C110.98802246 33.25144775 110.28854492 33.50289551 109.56787109 33.76196289 C92.22162659 39.88906041 74.2495397 44.24029476 56.47827148 48.92919922 C2.03446661 63.32592261 2.03446661 63.32592261 -50.11938477 84.27246094 C-52 85 -52 85 -55 85 C-57.28813836 83.0189539 -59.39030189 81.03372791 -61.5 78.875 C-62.12293945 78.24263428 -62.74587891 77.61026855 -63.38769531 76.95874023 C-69.45927623 70.69227865 -74.88571634 64.06239629 -80 57 C-80.41701172 56.42733398 -80.83402344 55.85466797 -81.26367188 55.26464844 C-86.66115389 47.75785402 -91.32247136 39.89679913 -95.6875 31.75 C-96.11482422 30.96616943 -96.54214844 30.18233887 -96.98242188 29.37475586 C-101.62870655 20.46612568 -104.44204831 11.65729743 -108 2 C-54.54 1.505 -54.54 1.505 0 1 C0 0.67 0 0.34 0 0 Z " fill="#65913E" transform="translate(218,312)"/>
<path d="M0 0 C11.29302532 0.64112715 22.57813878 0.75183449 33.88671875 0.84375 C36.05675085 0.8643851 38.22677953 0.88538294 40.39680481 0.90672302 C46.04032576 0.96126826 51.68387877 1.01096815 57.32745361 1.05957031 C63.11351287 1.11028665 68.89952699 1.16570789 74.68554688 1.22070312 C85.98824247 1.3274552 97.29097768 1.42907547 108.59375 1.52734375 C107.64027787 4.08783553 106.68521937 6.64771679 105.72924805 9.20727539 C105.46124138 9.92749123 105.19323471 10.64770706 104.91710663 11.38974762 C102.94046193 16.67674616 100.83620165 21.86758822 98.40625 26.96484375 C98.03169678 27.75068848 97.65714355 28.5365332 97.27124023 29.34619141 C88.28775431 47.68081155 75.64701755 63.82794896 61.59375 78.52734375 C60.7584375 79.40390625 59.923125 80.28046875 59.0625 81.18359375 C53.26782621 87.12496814 47.17702929 92.47659255 40.59375 97.52734375 C40.02930176 97.96771973 39.46485352 98.4080957 38.88330078 98.86181641 C21.57379636 112.23586242 1.4240618 122.82846859 -19.40625 129.52734375 C-19.40625 128.86734375 -19.40625 128.20734375 -19.40625 127.52734375 C-20.2828125 127.26179688 -21.159375 126.99625 -22.0625 126.72265625 C-30.64826567 123.65344562 -37.85804242 118.51274638 -42.40625 110.52734375 C-44.02772514 105.66291833 -44.06211011 101.41538873 -41.96875 96.71484375 C-34.47919403 83.10224729 -20.52365669 73.50660845 -8.3125 64.44140625 C7.53738097 53.36167041 7.53738097 53.36167041 17.59375 37.52734375 C18.23831211 32.37834181 18.2620803 27.94420399 16.03125 23.21484375 C15.226875 22.32796875 14.4225 21.44109375 13.59375 20.52734375 C13.16578125 20.05039062 12.7378125 19.5734375 12.296875 19.08203125 C2.40212123 9.34028914 -13.5312852 5.55353549 -26.40625 1.52734375 C-26.40625 1.19734375 -26.40625 0.86734375 -26.40625 0.52734375 C-23.80256646 0.3251461 -21.19924809 0.14086155 -18.59375 -0.03515625 C-17.89443359 -0.09123047 -17.19511719 -0.14730469 -16.47460938 -0.20507812 C-10.95108565 -0.56066978 -5.51771154 -0.34062822 0 0 Z " fill="#65913E" transform="translate(386.40625,312.47265625)"/>
<path d="M0 0 C0.66 0 1.32 0 2 0 C2.6708712 1.6232687 3.33657029 3.24867578 4 4.875 C4.37125 5.77992188 4.7425 6.68484375 5.125 7.6171875 C6 10 6 10 6 12 C4.20703125 13.3671875 4.20703125 13.3671875 1.8125 14.875 C-8.70077372 21.53515018 -16.582448 31.77094789 -20.40625 43.7734375 C-23.28186913 59.40015722 -21.30552479 74.74559316 -12.1875 88 C-4.04302789 98.23746495 5.5260024 104.05792064 18 108 C18 108.33 18 108.66 18 109 C10.08 109.495 10.08 109.495 2 110 C3.36511719 110.42410156 4.73023438 110.84820312 6.13671875 111.28515625 C36.83690677 121.02661602 36.83690677 121.02661602 44.15625 132.87109375 C45.18970427 135.47865198 45.30072865 137.57341944 45.3125 140.375 C45.33763672 141.74785156 45.33763672 141.74785156 45.36328125 143.1484375 C43.7372839 155.9116425 29.50294276 165.54454147 20 173 C16.6064801 175.58061081 13.17804588 178.11378415 9.75195312 180.65087891 C-6.18704788 192.37279679 -6.18704788 192.37279679 -16 209 C-16.62595573 213.9182236 -15.93640358 217.64858419 -13.58984375 221.94921875 C-8.50328839 228.51050024 -0.43724224 232.63219219 7 236 C7 236.66 7 237.32 7 238 C5.60993485 238.53603819 4.21257351 239.05317473 2.8125 239.5625 C2.03519531 239.85253906 1.25789062 240.14257812 0.45703125 240.44140625 C-3.250081 241.28419965 -5.81551085 240.5954344 -9.17578125 238.90625 C-16.41082488 234.14461251 -24.37645569 227.526519 -27 219 C-28.02241698 211.1579564 -27.57452034 205.01261901 -22.9921875 198.4453125 C-12.88617234 186.04067428 -0.01477182 177.31442933 12.984375 168.203125 C28.33391031 158.04475463 28.33391031 158.04475463 38 143 C38.37511248 139.02380772 38.2699158 136.57503801 36.5625 132.9375 C20.21650405 114.19940708 -14.70461113 109.98658832 -38 107 C-39.29357422 106.83177734 -39.29357422 106.83177734 -40.61328125 106.66015625 C-51.6771328 105.49132678 -62.8900789 105.91240358 -74 106 C-72.1128125 106.36351562 -72.1128125 106.36351562 -70.1875 106.734375 C-20.34332672 116.43772674 -20.34332672 116.43772674 -11.10546875 126.24609375 C-10 128 -10 128 -9.0625 131.5625 C-10.41785803 136.5321461 -12.73094142 138.30961287 -17 141 C-24.97788274 144.75429776 -33.32549175 147.61316788 -41.6875 150.375 C-42.86828125 150.76655273 -44.0490625 151.15810547 -45.265625 151.56152344 C-52.63149711 153.97414198 -60.02449567 156.20458099 -67.5 158.25 C-127.57676365 174.38369343 -127.57676365 174.38369343 -184.58203125 198.8515625 C-187 200 -187 200 -189.125 199.375 C-189.74375 198.92125 -190.3625 198.4675 -191 198 C-191.7425 197.46375 -192.485 196.9275 -193.25 196.375 C-193.8275 195.92125 -194.405 195.4675 -195 195 C-194 192 -194 192 -192.34643555 190.93188477 C-189.80015184 189.79054425 -187.25431844 188.65725252 -184.6875 187.5625 C-183.67405518 187.12856934 -182.66061035 186.69463867 -181.61645508 186.24755859 C-149.77816513 172.98336893 -115.87502959 163.57759973 -82.42887878 155.35057068 C-77.10362633 154.03882834 -71.82776258 152.59544465 -66.5625 151.0625 C-65.68053955 150.80726563 -64.7985791 150.55203125 -63.88989258 150.2890625 C-62.10562155 149.77215271 -60.32167664 149.25411566 -58.53808594 148.73486328 C-56.17662094 148.05113785 -53.81187595 147.38066748 -51.4453125 146.71484375 C-44.2945758 144.68703497 -37.23486691 142.48300309 -30.25 139.9375 C-29.59410889 139.70417969 -28.93821777 139.47085938 -28.26245117 139.23046875 C-24.23969566 137.7193776 -21.20969376 135.84829695 -18 133 C-18.09458857 130.60029448 -18.09458857 130.60029448 -19 128 C-31.47132375 118.07755993 -57.36803018 111.02615534 -73.07543945 110.79467773 C-74.27630692 110.77473251 -75.47717438 110.75478729 -76.71443176 110.73423767 C-78.00105209 110.71752518 -79.28767242 110.70081268 -80.61328125 110.68359375 C-81.95135612 110.66300365 -83.28942479 110.64200665 -84.62748718 110.62062073 C-88.13728794 110.56561225 -91.64714532 110.51611006 -95.15704346 110.46777344 C-98.74341835 110.41740272 -102.32971173 110.3617982 -105.91601562 110.30664062 C-112.9439396 110.19931897 -119.97193679 110.09781707 -127 110 C-127 109.67 -127 109.34 -127 109 C-126.23816406 108.82984375 -125.47632813 108.6596875 -124.69140625 108.484375 C-109.92628196 105.01890263 -97.59547514 99.05020588 -88.79296875 86.1640625 C-85.51846761 80.38553108 -83.22463914 74.24415759 -81 68 C-78.62109375 68.32421875 -78.62109375 68.32421875 -76 69 C-74.63636792 70.97946592 -73.30581356 72.9819245 -72 75 C-68.61129986 77.84958875 -66.09213175 79.1534586 -61.75 79.5625 C-60.5125 79.706875 -59.275 79.85125 -58 80 C-57.01 81.485 -57.01 81.485 -56 83 C-57.32 83 -58.64 83 -60 83 C-60 84.98 -60 86.96 -60 89 C-54.06 89 -48.12 89 -42 89 C-42.33 87.35 -42.66 85.7 -43 84 C-43.928125 83.9175 -44.85625 83.835 -45.8125 83.75 C-49 83 -49 83 -50.9375 81.1875 C-52 79 -52 79 -51.875 77 C-50.87195422 74.70732394 -49.52840165 72.97418546 -48 71 C-46.67407692 67.02223076 -46.35803649 63.01832746 -47.64599609 58.96899414 C-47.82122803 57.99434204 -47.82122803 57.99434204 -48 57 C-46.28674967 54.62384893 -44.59919547 52.57725623 -42.625 50.4375 C-41.50548448 49.18060055 -40.38700405 47.92277842 -39.26953125 46.6640625 C-38.71217285 46.04305664 -38.15481445 45.42205078 -37.58056641 44.78222656 C-35.42155341 42.34775099 -33.36229946 39.83925102 -31.3125 37.3125 C-30.59578125 36.43207031 -29.8790625 35.55164063 -29.140625 34.64453125 C-27.69001092 32.85244049 -26.24217725 31.05809619 -24.796875 29.26171875 C-20.18902646 23.56635351 -15.40395708 18.10789191 -10.43359375 12.7265625 C-7.30400534 9.22021786 -4.43412029 5.54331833 -1.59375 1.80078125 C-1.0678125 1.20652344 -0.541875 0.61226562 0 0 Z " fill="#F7F7F6" transform="translate(360,204)"/>
<path d="M0 0 C13.8905311 -0.70154197 25.25819717 -0.18118767 36.4375 9.1875 C40.97344201 13.62035242 44.19060953 18.33485947 47 24 C47.33902344 24.63292969 47.67804688 25.26585937 48.02734375 25.91796875 C51.93069154 34.35423656 51.00587655 45.4117813 48 54 C43.02163209 66.3149101 35.95811602 73.12892345 24.171875 78.6875 C14.70521889 82.60473701 2.08915214 82.69588968 -7.5 79.0625 C-17.5239347 74.13383404 -25.7470801 65.86637664 -30.02734375 55.515625 C-33.53965459 44.57404839 -33.53172088 33.1365178 -28.546875 22.71875 C-24.38342603 15.40117302 -19.34232462 9.30412133 -12 5 C-11.34 5 -10.68 5 -10 5 C-8.26713553 9.06093219 -6.539417 13.12403548 -4.8125 17.1875 C-4.32974609 18.31865234 -3.84699219 19.44980469 -3.34960938 20.61523438 C-0.41035104 27.53925905 2.37950832 34.49783847 5.01293945 41.54418945 C5.77597844 43.90677564 5.77597844 43.90677564 7 45 C9.5 45.16666667 9.5 45.16666667 12 45 C13.34438013 43.87096235 13.34438013 43.87096235 13.25610352 40.92260742 C12.96932149 36.53011283 11.71203745 33.17599024 9.90234375 29.23828125 C9.58922745 28.52520309 9.27611115 27.81212494 8.95350647 27.07743835 C7.96022942 24.81688268 6.95084031 22.56412626 5.9375 20.3125 C4.59997033 17.33511148 3.27821509 14.35139012 1.96484375 11.36328125 C1.65344955 10.68405106 1.34205536 10.00482086 1.02122498 9.30500793 C-1.07005555 4.54767245 -1.07005555 4.54767245 -0.68530273 1.53979492 C-0.45915283 1.0316626 -0.23300293 0.52353027 0 0 Z " fill="#FBFBFA" transform="translate(381,221)"/>
<path d="M0 0 C1.093125 0.66 2.18625 1.32 3.3125 2 C0.23344075 7.66125319 -3.31421582 12.80862315 -7.125 18 C-8.79203712 20.28666081 -10.45870807 22.57356804 -12.12255859 24.86254883 C-13.13517553 26.24561611 -14.15831623 27.62106537 -15.19384766 28.98706055 C-17.54358033 32.13215809 -18.66600909 33.83613184 -19.1875 37.8125 C-19.0225 38.864375 -18.8575 39.91625 -18.6875 41 C-14.93214638 43.50356908 -11.56146912 43.63353712 -7.1875 44.03515625 C-5.93936523 44.16053017 -5.93936523 44.16053017 -4.66601562 44.28843689 C-2.00722142 44.55435683 0.65249146 44.80904001 3.3125 45.0625 C5.97230085 45.32122521 8.63182564 45.58234388 11.29101562 45.84727478 C12.9455705 46.01157081 14.60051584 46.1719904 16.25585938 46.32814026 C19.4330631 46.63936219 22.27277901 46.98675967 25.3125 48 C22.51352279 58.38567859 17.27493386 66.84119929 8.3125 73 C-3.20647082 79.16688313 -15.28911541 81.07675691 -28.15234375 78.234375 C-40.48204103 73.63301623 -47.98795528 64.8382716 -53.4453125 53.296875 C-57.22748033 43.25866855 -56.85122688 31.84153626 -52.6875 22 C-47.32301882 10.72083443 -39.10484798 3.80188101 -27.6875 -1 C-19.6904058 -3.66569807 -7.668022 -3.48322669 0 0 Z " fill="#FBFBFA" transform="translate(242.6875,223)"/>
<path d="M0 0 C36.0365021 0 36.0365021 0 45.2734375 9.046875 C51.54873758 16.14563075 52.98765829 22.76545634 52.4765625 32.1171875 C51.56340034 39.55721364 48.69950099 44.67101241 43.375 49.875 C29.17191561 60.02006028 18.30726845 57 0 57 C0 38.19 0 19.38 0 0 Z " fill="#050505" transform="translate(197,514)"/>
<path d="M0 0 C4.929375 -0.061875 9.85875 -0.12375 14.9375 -0.1875 C16.47398193 -0.21481201 18.01046387 -0.24212402 19.59350586 -0.27026367 C28.35371605 -0.32335585 36.02362611 -0.2460195 43.0625 5.5 C46.16752339 9.7868662 45.72154373 14.97222188 45 20 C43.625 23 43.625 23 42 25 C41.34 25.99 40.68 26.98 40 28 C40.7425 28.185625 41.485 28.37125 42.25 28.5625 C45.97954563 30.51203522 47.54623296 33.1751156 49 37 C49.70814291 41.86848249 48.98553571 45.80306686 46.51318359 50.02246094 C43.52013982 53.93398959 39.64152907 55.58281324 35 57 C28.99718511 57.7788904 22.90819764 57.47067896 16.875 57.3125 C11.30625 57.209375 5.7375 57.10625 0 57 C0 38.19 0 19.38 0 0 Z " fill="#080909" transform="translate(424,514)"/>
<path d="M0 0 C0.99 2.97 0.99 2.97 2 6 C1.36384766 6.61875 1.36384766 6.61875 0.71484375 7.25 C-3.75669615 11.65274698 -7.92133029 16.23382726 -12 21 C-12.89571402 22.04307122 -13.7915573 23.08603145 -14.6875 24.12890625 C-16.73149839 26.50973064 -18.77279642 28.89283916 -20.8125 31.27734375 C-22.91232 33.73163705 -25.01652637 36.1820438 -27.125 38.62890625 C-32.50421608 44.87708574 -37.81495913 51.1578198 -42.96484375 57.59765625 C-45.18012122 60.2126191 -47.54786701 62.60757112 -50 65 C-49.54554036 63.58208592 -49.08625056 62.16571954 -48.625 60.75 C-48.36976563 59.96109375 -48.11453125 59.1721875 -47.8515625 58.359375 C-47.03744217 56.10373885 -46.24527876 54.05104738 -45 52 C-42.375 51.25 -42.375 51.25 -40 51 C-40 49.68 -40 48.36 -40 47 C-45.28 47 -50.56 47 -56 47 C-56 48.32 -56 49.64 -56 51 C-54.68 51.33 -53.36 51.66 -52 52 C-52.45082469 53.46067199 -52.91093537 54.91848032 -53.375 56.375 C-53.75785156 57.59316406 -53.75785156 57.59316406 -54.1484375 58.8359375 C-55 61 -55 61 -57 63 C-57.43868408 61.79988281 -57.87736816 60.59976563 -58.3293457 59.36328125 C-59.96719571 54.88285325 -61.60548235 50.40258501 -63.24389648 45.92236328 C-63.95104568 43.98848714 -64.6580787 42.0545685 -65.36499023 40.12060547 C-66.38494328 37.33028996 -67.40532311 34.54013082 -68.42578125 31.75 C-68.8947155 30.466698 -68.8947155 30.466698 -69.37312317 29.1574707 C-69.67320786 28.33722412 -69.97329254 27.51697754 -70.2824707 26.671875 C-70.56861237 25.88748047 -70.85475403 25.10308594 -71.14956665 24.29492188 C-71.71640825 22.76528151 -72.29634136 21.24042887 -72.88925171 19.72070312 C-75 14.29899984 -75 14.29899984 -75 11 C-57.76124406 8.09427045 -40.52010373 5.19778884 -23.25463867 2.45443726 C-21.88682437 2.23645043 -20.51930413 2.01660953 -19.15209961 1.79483032 C-17.24158037 1.48547987 -15.32979311 1.18399201 -13.41796875 0.8828125 C-12.34313232 0.71152832 -11.2682959 0.54024414 -10.16088867 0.36376953 C-6.74897096 -0.02888957 -3.43145844 -0.06109742 0 0 Z " fill="#FAFAFA" transform="translate(355,189)"/>
<path d="M0 0 C4.90875 -0.0825 9.8175 -0.165 14.875 -0.25 C16.40237793 -0.28641602 17.92975586 -0.32283203 19.50341797 -0.36035156 C27.99438642 -0.42910434 36.41760549 -0.30249258 42.95849609 5.83886719 C47.49606196 10.89165742 48.35222234 14.33648156 48.28125 21.10546875 C47.72940524 26.7848711 45.47072092 30.56515032 41.4375 34.5 C39 36 39 36 36 36 C37.60273174 38.41762912 39.20712697 40.8341257 40.8125 43.25 C41.26431641 43.93191406 41.71613281 44.61382813 42.18164062 45.31640625 C44.00355991 48.05593453 45.81094197 50.75547955 47.82421875 53.359375 C49 55 49 55 49 57 C44.17349539 57.67110106 39.80162921 57.93866436 35 57 C31.37743749 53.83908339 29.25438905 50.20781433 27 46 C26.43667969 45.09636719 25.87335937 44.19273437 25.29296875 43.26171875 C24 41 24 41 24 39 C20.37 39 16.74 39 13 39 C13 44.94 13 50.88 13 57 C8.71 57 4.42 57 0 57 C0 38.19 0 19.38 0 0 Z " fill="#060607" transform="translate(17,514)"/>
<path d="M0 0 C4.90875 -0.0825 9.8175 -0.165 14.875 -0.25 C16.40237793 -0.28641602 17.92975586 -0.32283203 19.50341797 -0.36035156 C27.75610531 -0.42717494 36.1111367 -0.32717653 42.63623047 5.44824219 C47.11791596 10.54770387 48.46334625 14.75674942 48.31640625 21.3984375 C47.65162403 26.86442467 45.42077161 30.71453997 41.375 34.375 C40.59125 34.91125 39.8075 35.4475 39 36 C38.34 36.66 37.68 37.32 37 38 C37.53109375 38.78503906 38.0621875 39.57007813 38.609375 40.37890625 C42.27114064 45.82478032 45.856823 51.23750883 49 57 C43.98586867 57.96271321 38.86907711 58.889584 34 57 C29.78023542 53.08638967 27.24971102 47.7155353 24.79345703 42.58227539 C24.10294922 40.99791064 24.10294922 40.99791064 23 40 C21.15108054 39.76636119 19.29511969 39.58696365 17.4375 39.4375 C15.643125 39.293125 13.84875 39.14875 12 39 C12 44.94 12 50.88 12 57 C8.04 57 4.08 57 0 57 C0 38.19 0 19.38 0 0 Z " fill="#050606" transform="translate(484,514)"/>
<path d="M0 0 C4.29 0 8.58 0 13 0 C18.45549429 11.34511523 23.57547976 22.79714733 28.43945312 34.40795898 C29.52192114 36.98978475 30.61223216 39.56820856 31.703125 42.14648438 C32.39629348 43.79407732 33.08901964 45.44185644 33.78125 47.08984375 C34.10613403 47.85739487 34.43101807 48.62494598 34.76574707 49.41575623 C37 54.76993358 37 54.76993358 37 57 C32.71 57 28.42 57 24 57 C19 46.25 19 46.25 19 44 C10.75 44 2.5 44 -6 44 C-6.99 47.3 -7.98 50.6 -9 54 C-9.66 54.99 -10.32 55.98 -11 57 C-13.8203125 57.29296875 -13.8203125 57.29296875 -17.125 57.1875 C-18.76855469 57.14689453 -18.76855469 57.14689453 -20.4453125 57.10546875 C-21.70988281 57.05326172 -21.70988281 57.05326172 -23 57 C-22.40410395 53.59088421 -21.54327053 50.59492831 -20.18994141 47.41259766 C-19.81930573 46.53463531 -19.44867004 45.65667297 -19.06680298 44.75210571 C-18.66577362 43.81555145 -18.26474426 42.87899719 -17.8515625 41.9140625 C-17.43836761 40.93891693 -17.02517273 39.96377136 -16.59945679 38.95907593 C-15.27905736 35.84581887 -13.95211634 32.73539886 -12.625 29.625 C-11.73915317 27.53924514 -10.8537318 25.45330953 -9.96875 23.3671875 C-6.65975179 15.57216173 -3.33903679 7.78220662 0 0 Z " fill="#060606" transform="translate(279,514)"/>
<path d="M0 0 C14.19 0 28.38 0 43 0 C43 3.63 43 7.26 43 11 C32.77 11 22.54 11 12 11 C12 14.96 12 18.92 12 23 C21.24 23 30.48 23 40 23 C40 26.63 40 30.26 40 34 C31.09 34 22.18 34 13 34 C13 37.96 13 41.92 13 46 C23.23 46 33.46 46 44 46 C44 49.63 44 53.26 44 57 C29.48 57 14.96 57 0 57 C0 38.19 0 19.38 0 0 Z " fill="#09090A" transform="translate(544,514)"/>
<path d="M0 0 C14.19 0 28.38 0 43 0 C43 3.63 43 7.26 43 11 C32.77 11 22.54 11 12 11 C12 14.96 12 18.92 12 23 C20.91 23 29.82 23 39 23 C39 26.63 39 30.26 39 34 C30.42 34 21.84 34 13 34 C13 37.96 13 41.92 13 46 C23.23 46 33.46 46 44 46 C44 49.63 44 53.26 44 57 C29.48 57 14.96 57 0 57 C0 38.19 0 19.38 0 0 Z " fill="#060606" transform="translate(141,514)"/>
<path d="M0 0 C3.96 0 7.92 0 12 0 C12.01458252 1.05912598 12.02916504 2.11825195 12.04418945 3.20947266 C12.10237327 7.15707342 12.17960407 11.10411571 12.26245117 15.05126953 C12.29560636 16.75625512 12.32366737 18.46134798 12.34643555 20.16650391 C12.38015568 22.62448634 12.43247794 25.08149406 12.48828125 27.5390625 C12.49467117 28.29555084 12.5010611 29.05203918 12.50764465 29.83145142 C12.66097208 35.41091606 13.74975975 39.78718578 17.87890625 43.84765625 C21.74191771 45.94634572 25.73765807 45.63452339 30 45 C33.55680172 42.89495409 34.69468936 41.91593192 36 38 C36.15413876 35.12561452 36.25747285 32.27101014 36.31640625 29.39453125 C36.33718735 28.55532639 36.35796844 27.71612152 36.37937927 26.85148621 C36.44474018 24.17190706 36.50369714 21.49223031 36.5625 18.8125 C36.60569802 16.99543263 36.64931273 15.17837512 36.69335938 13.36132812 C36.8004078 8.90765201 36.90171319 4.45387774 37 0 C41.29 0 45.58 0 50 0 C50.04974332 4.98045424 50.08588098 9.96076121 50.10986328 14.94140625 C50.11986984 16.63283816 50.13347931 18.32425299 50.15087891 20.015625 C50.17536403 22.45837642 50.18653672 24.90089749 50.1953125 27.34375 C50.20563507 28.08991577 50.21595764 28.83608154 50.22659302 29.6048584 C50.22848714 38.6345241 47.98055369 46.0794504 42 53 C34.91688512 58.56858276 26.67215744 58.87718374 18 58 C10.03726754 55.51030468 5.70902663 51.3635163 1.3894043 44.40576172 C-0.42754609 39.95198243 -0.37806073 36.20365609 -0.29296875 31.4453125 C-0.28872391 30.54376434 -0.28447906 29.64221619 -0.28010559 28.71334839 C-0.26339058 25.85025435 -0.22575192 22.98787921 -0.1875 20.125 C-0.17244387 18.17709354 -0.15875709 16.22917598 -0.14648438 14.28125 C-0.11351058 9.52055878 -0.06177813 4.76040104 0 0 Z " fill="#09090A" transform="translate(77,514)"/>
<path d="M0 0 C3.96 0 7.92 0 12 0 C12 14.85 12 29.7 12 45 C20.91 45 29.82 45 39 45 C39 48.96 39 52.92 39 57 C26.13 57 13.26 57 0 57 C0 38.19 0 19.38 0 0 Z " fill="#070707" transform="translate(348,514)"/>
<path d="M0 0 C16.04501608 0 16.04501608 0 22 4 C27.19136355 9.45093172 27.35853755 13.44980986 27.26953125 20.796875 C26.84330638 25.86215608 25.03114625 28.04717558 21.48046875 31.4609375 C14.48083071 36.9813492 9.88136228 35 0 35 C0 23.45 0 11.9 0 0 Z " fill="#F5F6F5" transform="translate(209,525)"/>
<path d="M0 0 C3.96 0 7.92 0 12 0 C12 18.81 12 37.62 12 57 C8.04 57 4.08 57 0 57 C0 38.19 0 19.38 0 0 Z " fill="#020202" transform="translate(397,514)"/>
<path d="M0 0 C1.01835937 0.08121094 2.03671875 0.16242188 3.0859375 0.24609375 C5.7281852 0.46684709 8.36355077 0.71931339 11 1 C9.04796493 6.21559372 6.46905736 11.08720935 3.921875 16.02929688 C1.92966045 19.95054007 0.27084082 23.77048288 -1 28 C-6.94162007 27.43375164 -11.92821148 25.6793942 -17.4375 23.4375 C-18.26443359 23.10814453 -19.09136719 22.77878906 -19.94335938 22.43945312 C-21.96498093 21.63314164 -23.98288449 20.81751877 -26 20 C-26 14.30694076 -20.62904081 10.09579847 -17 6 C-16.40445313 5.32195312 -15.80890625 4.64390625 -15.1953125 3.9453125 C-10.49563083 -0.75436917 -6.38182783 -0.65289593 0 0 Z " fill="#F5F5F5" transform="translate(245,428)"/>
<path d="M0 0 C6.99848263 4.77945155 11.57544069 11.98580226 13.88671875 20.12109375 C14.57461501 23.79475253 15 27.26208951 15 31 C3.82377681 31.62475782 -6.99566055 29.7443641 -18 28 C-14.28714969 17.68652693 -6.46562208 8.73546813 0 0 Z " fill="#F5F6F6" transform="translate(254,230)"/>
<path d="M0 0 C0.66 0 1.32 0 2 0 C4.59093758 6.86996509 7.16625196 13.74562306 9.73339844 20.62451172 C10.9475262 23.86015754 12.17907791 27.08867493 13.4140625 30.31640625 C14.15151113 32.27326064 14.88851005 34.23028459 15.625 36.1875 C15.97949219 37.10031738 16.33398438 38.01313477 16.69921875 38.95361328 C17.17681641 40.23534424 17.17681641 40.23534424 17.6640625 41.54296875 C18.08872803 42.6570813 18.08872803 42.6570813 18.52197266 43.79370117 C19.11359334 46.52428142 18.77608146 48.32994257 18 51 C16.1875 53.8125 16.1875 53.8125 14 56 C12.68 56 11.36 56 10 56 C9.83564453 54.76636719 9.83564453 54.76636719 9.66796875 53.5078125 C7.60091597 38.95441651 3.67629599 28.33069253 -6 17 C-6.99 16.34 -7.98 15.68 -9 15 C-7.61624869 11.16009012 -5.83690651 8.02947436 -3.5 4.6875 C-2.8915625 3.80449219 -2.283125 2.92148438 -1.65625 2.01171875 C-1.1096875 1.34785156 -0.563125 0.68398437 0 0 Z " fill="#F2F2F2" transform="translate(270,207)"/>
<path d="M0 0 C3.66143529 1.59192838 6.16390091 3.42443861 8 7 C8.4085132 11.28938857 8.48025674 13.86254983 6.8125 17.8125 C4.17726252 20.99295903 2.0211958 22.69865808 -2.1484375 23.3203125 C-6.17080409 23.52076266 -8.42120015 23.34481693 -11.9375 21.25 C-14.99092049 17.91899583 -15.87145424 16.15691184 -16.375 11.625 C-15.93060645 7.32919568 -14.70408706 5.32216411 -12 2 C-7.9556813 -0.69621247 -4.74665346 -0.54319098 0 0 Z " fill="#0E0E0E" transform="translate(257,589)"/>
<path d="M0 0 C-4.24422416 4.43677875 -8.85866205 8.09918429 -13.74023438 11.80664062 C-16.78595676 14.15334476 -19.54647004 16.51279223 -22.1796875 19.3203125 C-25.09998323 22.09499791 -25.46420059 22.36294578 -29.1875 22.4375 C-30.79435366 22.32507509 -32.3988597 22.17597672 -34 22 C-34.99773437 21.91878906 -35.99546875 21.83757812 -37.0234375 21.75390625 C-39.68614521 21.53144352 -42.34262407 21.27815524 -45 21 C-40.11575048 15.87333368 -34.61679051 12.07123405 -28.74951172 8.18603516 C-27.04986362 7.03380372 -25.40262535 5.82906857 -23.75390625 4.60546875 C-15.56471034 -1.11794724 -9.78180115 -1.87716724 0 0 Z " fill="#F3F3F4" transform="translate(295,395)"/>
<path d="M0 0 C1.98 0 3.96 0 6 0 C7.609375 1.75 7.609375 1.75 8.75 4 C9.45666572 5.35679819 10.19758878 6.69753541 11 8 C11.66 8 12.32 8 13 8 C14.25025118 5.97060678 15.31306403 3.87559971 16.390625 1.75 C16.92171875 1.1725 17.4528125 0.595 18 0 C19.98 0 21.96 0 24 0 C24 7.59 24 15.18 24 23 C22.02 23 20.04 23 18 23 C17.67 19.04 17.34 15.08 17 11 C15.68 13.31 14.36 15.62 13 18 C8.60841671 16.5361389 8.12052567 14.02168662 6 10 C5.67 14.29 5.34 18.58 5 23 C3.35 23 1.7 23 0 23 C0 15.41 0 7.82 0 0 Z " fill="#171515" transform="translate(211,589)"/>
<path d="M0 0 C2.701875 -0.061875 5.40375 -0.12375 8.1875 -0.1875 C9.02949951 -0.21481201 9.87149902 -0.24212402 10.73901367 -0.27026367 C15.31952096 -0.32089807 18.28298447 0.01917007 22 3 C23.58910767 6.17821535 23.40420974 9.53939729 23 13 C21.18836733 15.67431489 20.12238923 15.95920359 17 17 C15.66474283 17.07973476 14.32587917 17.10771338 12.98828125 17.09765625 C11.96408081 17.09390991 11.96408081 17.09390991 10.91918945 17.09008789 C10.05898193 17.08098389 9.19877441 17.07187988 8.3125 17.0625 C4.1978125 17.0315625 4.1978125 17.0315625 0 17 C0 11.39 0 5.78 0 0 Z " fill="#F0F1F2" transform="translate(29,525)"/>
<path d="M0 0 C2.536875 -0.061875 5.07375 -0.12375 7.6875 -0.1875 C8.47729248 -0.21481201 9.26708496 -0.24212402 10.08081055 -0.27026367 C14.62928046 -0.32374802 17.38608784 0.23089848 21 3 C23 5 23 5 23.3125 8.375 C22.99011445 12.11467234 22.65714182 13.44127084 20 16 C17.29283758 16.90238747 15.76223232 17.11851302 12.98828125 17.09765625 C11.96408081 17.09390991 11.96408081 17.09390991 10.91918945 17.09008789 C10.05898193 17.08098389 9.19877441 17.07187988 8.3125 17.0625 C4.1978125 17.0315625 4.1978125 17.0315625 0 17 C0 11.39 0 5.78 0 0 Z " fill="#F3F4F5" transform="translate(496,525)"/>
<path d="M0 0 C13.19405906 -0.49323585 13.19405906 -0.49323585 16.9296875 1.79296875 C19 4 19 4 19.4375 7.5625 C19 11 19 11 17 14 C16.34 14 15.68 14 15 14 C15.7425 15.175625 15.7425 15.175625 16.5 16.375 C18 19 18 19 18 21 C18.66 21 19.32 21 20 21 C20 21.66 20 22.32 20 23 C17.25 23.375 17.25 23.375 14 23 C12.61876037 21.03277992 11.28511874 19.03131672 10 17 C7.37233611 16.03780298 7.37233611 16.03780298 5 16 C5 18.31 5 20.62 5 23 C3.35 23 1.7 23 0 23 C0 15.41 0 7.82 0 0 Z " fill="#060504" transform="translate(470,589)"/>
<path d="M0 0 C1.9375 1.1875 1.9375 1.1875 3 3 C3.48957241 6.18222067 3.33414163 7.51271012 1.5 10.1875 C1.005 10.785625 0.51 11.38375 0 12 C0 12.66 0 13.32 0 14 C0.598125 13.505 1.19625 13.01 1.8125 12.5 C4 11 4 11 7 11 C6.814375 12.0725 6.62875 13.145 6.4375 14.25 C6.0695432 17.40391546 5.95534657 19.09818492 7 22 C3.98968256 22.93423645 3.13349732 23.04449911 0 22 C-0.66 22.33 -1.32 22.66 -2 23 C-5.375 23.375 -5.375 23.375 -9 23 C-11.5 20.875 -11.5 20.875 -13 18 C-12.875 14.75 -12.875 14.75 -12 12 C-11.34 11.67 -10.68 11.34 -10 11 C-10.061875 9.741875 -10.12375 8.48375 -10.1875 7.1875 C-10.16934383 4.62294156 -10.1515987 3.28536227 -8.9375 1 C-5.86784865 -0.58433618 -3.38318857 -0.36248449 0 0 Z " fill="#111110" transform="translate(294,589)"/>
<path d="M0 0 C1.65 0 3.3 0 5 0 C6.86451757 1.99198062 8.30292791 3.76955072 9.8125 6 C10.21919922 6.57234375 10.62589844 7.1446875 11.04492188 7.734375 C12.04474232 9.14588621 13.02438622 10.57165041 14 12 C14.33 8.04 14.66 4.08 15 0 C16.65 0 18.3 0 20 0 C20 7.59 20 15.18 20 23 C18.35 23 16.7 23 15 23 C13.13548243 21.00801938 11.69707209 19.23044928 10.1875 17 C9.78080078 16.42765625 9.37410156 15.8553125 8.95507812 15.265625 C7.95525768 13.85411379 6.97561378 12.42834959 6 11 C5.67 14.96 5.34 18.92 5 23 C3.35 23 1.7 23 0 23 C0 15.41 0 7.82 0 0 Z " fill="#0C0C0C" transform="translate(394,589)"/>
<path d="M0 0 C1.98 0 3.96 0 6 0 C7.50585523 3.45581315 9.00368289 6.91504753 10.5 10.375 C10.92925781 11.35984375 11.35851562 12.3446875 11.80078125 13.359375 C12.40986328 14.77089844 12.40986328 14.77089844 13.03125 16.2109375 C13.40830078 17.08024902 13.78535156 17.94956055 14.17382812 18.84521484 C15 21 15 21 15 23 C13.02 23 11.04 23 9 23 C8.67 21.68 8.34 20.36 8 19 C4.7 19 1.4 19 -2 19 C-2.66 20.32 -3.32 21.64 -4 23 C-5.65 23 -7.3 23 -9 23 C-6.54234965 15.08090444 -3.33181427 7.58014704 0 0 Z " fill="#151615" transform="translate(325,589)"/>
<path d="M0 0 C5.61 0 11.22 0 17 0 C17 1.65 17 3.3 17 5 C13.04 5 9.08 5 5 5 C5 6.32 5 7.64 5 9 C8.63 9 12.26 9 16 9 C16 10.32 16 11.64 16 13 C12.37 13 8.74 13 5 13 C5 14.65 5 16.3 5 18 C8.96 18 12.92 18 17 18 C17.33 19.65 17.66 21.3 18 23 C12.06 23 6.12 23 0 23 C0 15.41 0 7.82 0 0 Z " fill="#151515" transform="translate(370,589)"/>
<path d="M0 0 C2.91691525 -0.05401695 5.83282724 -0.09368066 8.75 -0.125 C9.575 -0.14175781 10.4 -0.15851562 11.25 -0.17578125 C12.04921875 -0.18222656 12.8484375 -0.18867187 13.671875 -0.1953125 C14.4050293 -0.20578613 15.13818359 -0.21625977 15.89355469 -0.22705078 C18.33992539 0.03664008 19.91604264 0.70590223 22 2 C23.43060128 4.86120256 23.38692581 6.84010585 23 10 C18.62842973 13.7822439 14.14388767 13.35545511 8.6875 13.1875 C7.85154297 13.17396484 7.01558594 13.16042969 6.15429688 13.14648438 C4.10258502 13.11131217 2.05120725 13.05751048 0 13 C0 8.71 0 4.42 0 0 Z " fill="#F5F7F7" transform="translate(437,547)"/>
<path d="M0 0 C1.65 0 3.3 0 5 0 C8.95357846 7.45291599 12.08546529 15.08734833 15 23 C13.02 23 11.04 23 9 23 C8.505 20.525 8.505 20.525 8 18 C4.37 18 0.74 18 -3 18 C-3.33 19.65 -3.66 21.3 -4 23 C-5.65 23 -7.3 23 -9 23 C-6.91147495 14.88406495 -3.64670147 7.52943541 0 0 Z " fill="#0F0F0F" transform="translate(503,589)"/>
<path d="M0 0 C1.65 0 3.3 0 5 0 C5.06058594 1.14339844 5.12117188 2.28679688 5.18359375 3.46484375 C5.26798428 4.95574305 5.35263302 6.44662775 5.4375 7.9375 C5.47681641 8.69224609 5.51613281 9.44699219 5.55664062 10.22460938 C5.44038024 13.91944187 5.44038024 13.91944187 7 17 C10 17.16666667 10 17.16666667 13 17 C15.05922402 14.94077598 14.41427579 10.78291876 14.5625 7.9375 C14.60568359 7.17888672 14.64886719 6.42027344 14.69335938 5.63867188 C14.79973633 3.75934562 14.90039934 1.87969756 15 0 C16.65 0 18.3 0 20 0 C20.13539281 2.89740622 20.23426829 5.78845621 20.3125 8.6875 C20.35439453 9.50412109 20.39628906 10.32074219 20.43945312 11.16210938 C20.52738217 15.50580421 20.41692846 17.42413605 17.796875 21.04296875 C14.03668229 23.67405332 11.76952929 23.71223949 7.3125 23.5 C5 23 5 23 2.4375 20.625 C-0.00202834 16.17020911 -0.11884413 12.89396138 -0.0625 7.875 C-0.05798828 7.12089844 -0.05347656 6.36679687 -0.04882812 5.58984375 C-0.03703499 3.72652873 -0.01909942 1.86325445 0 0 Z " fill="#0C0B0B" transform="translate(443,589)"/>
<path d="M0 0 C0.7425 0.495 0.7425 0.495 1.5 1 C0.84 2.32 0.18 3.64 -0.5 5 C-3.14 4.67 -5.78 4.34 -8.5 4 C-8.83 4.99 -9.16 5.98 -9.5 7 C-8.57767578 7.16435547 -8.57767578 7.16435547 -7.63671875 7.33203125 C-6.82847656 7.49058594 -6.02023438 7.64914062 -5.1875 7.8125 C-4.38699219 7.96332031 -3.58648437 8.11414063 -2.76171875 8.26953125 C-0.21448528 9.09221287 0.88013892 9.88802923 2.5 12 C3.0244772 15.5214898 2.91549639 17.31352771 1.0625 20.375 C-2.7203032 22.77385081 -6.13626702 22.6755245 -10.5 22 C-13.5625 20.5 -13.5625 20.5 -15.5 19 C-14.84 17.68 -14.18 16.36 -13.5 15 C-9.87 15.66 -6.24 16.32 -2.5 17 C-2.83 16.01 -3.16 15.02 -3.5 14 C-5.53277473 13.04882642 -5.53277473 13.04882642 -7.9375 12.4375 C-12.30269058 11.19730942 -12.30269058 11.19730942 -14.5 9 C-15.16932271 2.86454183 -15.16932271 2.86454183 -13 0.0625 C-8.66953041 -1.77794957 -4.36198465 -1.74479386 0 0 Z " fill="#141413" transform="translate(202.5,590)"/>
<path d="M0 0 C2.75105422 -0.10812003 5.49785087 -0.18734945 8.25 -0.25 C9.02730469 -0.28351562 9.80460937 -0.31703125 10.60546875 -0.3515625 C16.36929526 -0.45008945 16.36929526 -0.45008945 19.55078125 1.8203125 C21 4 21 4 20.9375 7.125 C20 10 20 10 17 12 C15.09887695 12.22705078 15.09887695 12.22705078 12.98828125 12.1953125 C12.23095703 12.18886719 11.47363281 12.18242188 10.69335938 12.17578125 C9.90767578 12.15902344 9.12199219 12.14226563 8.3125 12.125 C7.51521484 12.11597656 6.71792969 12.10695313 5.89648438 12.09765625 C3.930861 12.07411585 1.96539225 12.03824547 0 12 C0 8.04 0 4.08 0 0 Z " fill="#F0F1F2" transform="translate(436,525)"/>
<path d="M0 0 C3.0625 1.5 3.0625 1.5 5 3 C3.68 4.32 2.36 5.64 1 7 C0.01 6.34 -0.98 5.68 -2 5 C-4.5 4.5 -4.5 4.5 -7 5 C-9.04826062 6.47959573 -9.04826062 6.47959573 -10 9 C-9.95350297 13.3457684 -9.95350297 13.3457684 -8 17 C-4.1638778 17.14475933 -0.67692213 17.17661508 3 16 C3.66 17.32 4.32 18.64 5 20 C1.10757108 23.01349336 -2.07158927 23.51831234 -6.84765625 23.359375 C-10.08890775 22.818186 -11.78200098 21.3524232 -14 19 C-16.68121076 14.97818385 -16.81344335 11.72763609 -16 7 C-12.16252937 0.1096717 -7.33134281 -0.75841477 0 0 Z " fill="#151515" transform="translate(106,589)"/>
<path d="M0 0 C3.0625 1.5 3.0625 1.5 5 3 C4.67 3.99 4.34 4.98 4 6 C3.32453125 5.88140625 2.6490625 5.7628125 1.953125 5.640625 C-3.57068297 4.73063017 -3.57068297 4.73063017 -8.6875 6.5 C-10.52185611 9.99401163 -9.92162566 12.24260306 -9 16 C-7.8448749 17.38177162 -7.8448749 17.38177162 -4.6875 17.125 C-1.85351237 17.02893262 0.33595099 16.85249568 3 16 C3.66 17.32 4.32 18.64 5 20 C1.10838064 23.0128666 -2.07169567 23.52234924 -6.84765625 23.35546875 C-10.89729418 22.68665377 -12.99284459 20.39083366 -15.3125 17.1875 C-16.33529387 13.93315587 -16.35124367 11.39535546 -16 8 C-11.96586334 0.62726749 -8.02643287 -0.96991921 0 0 Z " fill="#111111" transform="translate(144,589)"/>
<path d="M0 0 C0.91007812 0.10183594 1.82015625 0.20367187 2.7578125 0.30859375 C3.45648438 0.39238281 4.15515625 0.47617187 4.875 0.5625 C2.68185387 2.96206498 0.55742101 4.42070498 -2.328125 5.90234375 C-3.14410156 6.32580078 -3.96007812 6.74925781 -4.80078125 7.18554688 C-5.65027344 7.61931641 -6.49976563 8.05308594 -7.375 8.5 C-9.04748766 9.36209371 -10.71937268 10.22535766 -12.390625 11.08984375 C-13.19878662 11.50314941 -14.00694824 11.91645508 -14.83959961 12.34228516 C-16.90448501 13.44476323 -18.85537498 14.64389867 -20.83203125 15.89453125 C-24.56811853 17.78695031 -26.46156349 17.86543526 -30.5625 17.3125 C-31.61308594 17.18359375 -32.66367187 17.0546875 -33.74609375 16.921875 C-34.53113281 16.80328125 -35.31617188 16.6846875 -36.125 16.5625 C-36.125 15.9025 -36.125 15.2425 -36.125 14.5625 C-35.25697754 14.14363525 -34.38895508 13.72477051 -33.49462891 13.29321289 C-30.27792645 11.74094562 -27.06131299 10.18849401 -23.84472656 8.63598633 C-22.45184726 7.96373537 -21.05894374 7.29153459 -19.66601562 6.61938477 C-17.66530103 5.65394022 -15.66467323 4.68831601 -13.6640625 3.72265625 C-12.72803696 3.27104881 -12.72803696 3.27104881 -11.77310181 2.81031799 C-4.80356034 -0.55425696 -4.80356034 -0.55425696 0 0 Z " fill="#EDEDED" transform="translate(336.125,369.4375)"/>
<path d="M0 0 C1.65 0 3.3 0 5 0 C6.65 4.29 8.3 8.58 10 13 C11.8272911 10.25906335 12.93698178 7.86174676 14.125 4.8125 C14.47820312 3.91144531 14.83140625 3.01039063 15.1953125 2.08203125 C15.46085937 1.39496094 15.72640625 0.70789063 16 0 C17.65 0 19.3 0 21 0 C20.38696372 5.40508043 18.55619307 9.92439045 16.4375 14.875 C16.10814453 15.65875 15.77878906 16.4425 15.43945312 17.25 C14.63203214 19.16908756 13.81680231 21.0848865 13 23 C11.35 23 9.7 23 8 23 C6.65490586 19.9216662 5.32602447 16.83659075 4 13.75 C3.6184375 12.87730469 3.236875 12.00460937 2.84375 11.10546875 C2.4828125 10.26113281 2.121875 9.41679688 1.75 8.546875 C1.41484375 7.77182617 1.0796875 6.99677734 0.734375 6.19824219 C0 4 0 4 0 0 Z " fill="#0F0F0E" transform="translate(343,589)"/>
<path d="M0 0 C5.94 0 11.88 0 18 0 C18 1.65 18 3.3 18 5 C16.02 5 14.04 5 12 5 C12 10.94 12 16.88 12 23 C10.02 23 8.04 23 6 23 C6 17.06 6 11.12 6 5 C4.02 5 2.04 5 0 5 C0 3.35 0 1.7 0 0 Z " fill="#212020" transform="translate(420,589)"/>
<path d="M0 0 C15.47028229 -0.21491095 30.67153228 -0.27088411 46 2 C44.68 2.33 43.36 2.66 42 3 C42 3.99 42 4.98 42 6 C40.02 6 38.04 6 36 6 C36 6.66 36 7.32 36 8 C30.26310404 7.36907153 24.74401574 6.36633338 19.125 5.0625 C17.54705701 4.70362586 15.96893277 4.34554769 14.390625 3.98828125 C13.63845703 3.8176416 12.88628906 3.64700195 12.11132812 3.47119141 C8.08836011 2.57337361 4.04655839 1.78320485 0 1 C0 0.67 0 0.34 0 0 Z " fill="#212120" transform="translate(282,309)"/>
<path d="M0 0 C1.9375 1.625 1.9375 1.625 3 4 C2.93375803 7.77579201 2.78061285 10.07482922 0.3125 13 C-2.89970645 14.38906225 -4.6936636 14.05521374 -8 13 C-9.9375 11.375 -9.9375 11.375 -11 9 C-10.93375803 5.22420799 -10.78061285 2.92517078 -8.3125 0 C-5.10029355 -1.38906225 -3.3063364 -1.05521374 0 0 Z " fill="#F0F1F0" transform="translate(257,594)"/>
<path d="M0 0 C1.65 0 3.3 0 5 0 C5 6.27 5 12.54 5 19 C8.63 19 12.26 19 16 19 C16 20.32 16 21.64 16 23 C10.72 23 5.44 23 0 23 C0 15.41 0 7.82 0 0 Z " fill="#100F0F" transform="translate(155,589)"/>
<path d="M0 0 C3.22334883 2.63728541 4.25743292 5.71892631 5.6875 9.5625 C6.34298828 11.29693359 6.34298828 11.29693359 7.01171875 13.06640625 C8 16 8 16 8 18 C3.38 18 -1.24 18 -6 18 C-5.19950264 13.19701584 -4.32420375 9.97893173 -2.4375 5.625 C-1.98246094 4.56539062 -1.52742188 3.50578125 -1.05859375 2.4140625 C-0.70925781 1.61742187 -0.35992187 0.82078125 0 0 Z " fill="#EEEFEF" transform="translate(285,529)"/>
<path d="M0 0 C4.62 0 9.24 0 14 0 C14 0.33 14 0.66 14 1 C9.71 1 5.42 1 1 1 C1 7.93 1 14.86 1 22 C1.99 22 2.98 22 4 22 C4 16.39 4 10.78 4 5 C6.97 5 9.94 5 13 5 C13.33 6.65 13.66 8.3 14 10 C10.04 11.98 10.04 11.98 6 14 C7.32 14.66 8.64 15.32 10 16 C8.35 16 6.7 16 5 16 C5 18.31 5 20.62 5 23 C3.35 23 1.7 23 0 23 C0 15.41 0 7.82 0 0 Z " fill="#2B2A2A" transform="translate(470,589)"/>
<path d="M0 0 C1.65 0 3.3 0 5 0 C5 7.26 5 14.52 5 22 C3.68 22 2.36 22 1 22 C1 17.71 1 13.42 1 9 C-0.32 9.33 -1.64 9.66 -3 10 C-3.75 8.375 -3.75 8.375 -4 6 C-2.375 2.75 -2.375 2.75 0 0 Z " fill="#050504" transform="translate(229,589)"/>
<path d="M0 0 C1.65 0 3.3 0 5 0 C5 7.59 5 15.18 5 23 C3.35 23 1.7 23 0 23 C0 15.41 0 7.82 0 0 Z " fill="#121212" transform="translate(117,589)"/>
<path d="M0 0 C1.65 0 3.3 0 5 0 C5 7.59 5 15.18 5 23 C3.35 23 1.7 23 0 23 C0 15.41 0 7.82 0 0 Z " fill="#121111" transform="translate(176,589)"/>
<path d="M0 0 C2.375 -0.1875 2.375 -0.1875 5 0 C7.36574234 3.5486135 7.10865265 4.5764525 6.625 8.6875 C6.45871094 10.17830078 6.45871094 10.17830078 6.2890625 11.69921875 C6.14597656 12.83810547 6.14597656 12.83810547 6 14 C3.125 14.1875 3.125 14.1875 0 14 C-0.66 13.01 -1.32 12.02 -2 11 C-2.66 11 -3.32 11 -4 11 C-3.52269162 9.5410574 -3.04308958 8.08286504 -2.5625 6.625 C-2.29566406 5.81289063 -2.02882813 5.00078125 -1.75390625 4.1640625 C-1 2 -1 2 0 0 Z " fill="#141413" transform="translate(503,589)"/>
<path d="M0 0 C0.1875 2.5625 0.1875 2.5625 0 5 C0 5.33 0 5.66 0 6 C0.66 6.66 1.32 7.32 2 8 C1.01 8.33 0.02 8.66 -1 9 C-0.2575 10.175625 -0.2575 10.175625 0.5 11.375 C2 14 2 14 2 16 C2.66 16 3.32 16 4 16 C4 16.66 4 17.32 4 18 C1.25 18.375 1.25 18.375 -2 18 C-6 13.15789474 -6 13.15789474 -6 10 C-7.65 10 -9.3 10 -11 10 C-8.59563974 6.39345961 -7.05320393 6.14547068 -3 5 C-3 3.68 -3 2.36 -3 1 C-5.64 0.67 -8.28 0.34 -11 0 C-11 -0.33 -11 -0.66 -11 -1 C-3.375 -2.25 -3.375 -2.25 0 0 Z " fill="#161615" transform="translate(486,594)"/>
<path d="M0 0 C1.65 0 3.3 0 5 0 C5.33 2.97 5.66 5.94 6 9 C5.34 9 4.68 9 4 9 C4 13.62 4 18.24 4 23 C2.68 23 1.36 23 0 23 C0 15.41 0 7.82 0 0 Z " fill="#060505" transform="translate(394,589)"/>
<path d="M0 0 C0 0.66 0 1.32 0 2 C-11.25985941 11.64136339 -11.25985941 11.64136339 -18.3125 11.5625 C-19.529375 11.376875 -20.74625 11.19125 -22 11 C-22 10.34 -22 9.68 -22 9 C-19.67551402 7.34264449 -17.37601658 5.84592423 -14.9375 4.375 C-14.28072266 3.95476562 -13.62394531 3.53453125 -12.94726562 3.1015625 C-8.37171419 0.32467611 -5.34324552 -0.48638126 0 0 Z " fill="#E3E2E3" transform="translate(369,352)"/>
<path d="M0 0 C2.97727959 0.49711383 4.85350553 1.4088456 7.15234375 3.359375 C8.46484375 5.546875 8.46484375 5.546875 9.15234375 7.359375 C7.50234375 8.019375 5.85234375 8.679375 4.15234375 9.359375 C3.63671875 8.67875 3.12109375 7.998125 2.58984375 7.296875 C0.2188255 4.95442691 0.2188255 4.95442691 -3.28515625 5.671875 C-4.46078125 5.89875 -5.63640625 6.125625 -6.84765625 6.359375 C-9.78515625 5.921875 -9.78515625 5.921875 -11.84765625 5.359375 C-8.20843428 0.66360471 -5.70607438 -0.3417948 0 0 Z " fill="#121212" transform="translate(254.84765625,588.640625)"/>
<path d="M0 0 C0.33 0 0.66 0 1 0 C1 7.59 1 15.18 1 23 C-0.98 23 -2.96 23 -5 23 C-5.33 19.04 -5.66 15.08 -6 11 C-7.32 13.31 -8.64 15.62 -10 18 C-10.99 17.67 -11.98 17.34 -13 17 C-13.33 15.02 -13.66 13.04 -14 11 C-12.68 10.67 -11.36 10.34 -10 10 C-10 9.34 -10 8.68 -10 8 C-7.03 8.495 -7.03 8.495 -4 9 C-4 13.29 -4 17.58 -4 22 C-2.68 22 -1.36 22 0 22 C0 14.74 0 7.48 0 0 Z " fill="#454445" transform="translate(234,589)"/>
<path d="M0 0 C0.70511719 0.34804688 1.41023437 0.69609375 2.13671875 1.0546875 C5.50876462 2.16796867 7.37087431 1.87137666 10.8125 1.125 C11.78832031 0.92132812 12.76414063 0.71765625 13.76953125 0.5078125 C14.50558594 0.34023438 15.24164063 0.17265625 16 0 C16.66 1.32 17.32 2.64 18 4 C14.14149291 6.98723129 10.85137555 7.62687001 6.09375 7.5 C4 7 4 7 1.4375 4.0625 C0 1 0 1 0 0 Z " fill="#191919" transform="translate(131,605)"/>
<path d="M0 0 C2.96404505 2.80804268 5.44499019 5.18315774 7 9 C5.35 9.66 3.7 10.32 2 11 C1.67 10.67 1.34 10.34 1 10 C0.67 13.96 0.34 17.92 0 22 C-0.33 22 -0.66 22 -1 22 C-1 17.38 -1 12.76 -1 8 C-0.34 8 0.32 8 1 8 C0.4740625 6.8553125 0.4740625 6.8553125 -0.0625 5.6875 C-1 3 -1 3 0 0 Z " fill="#2F3031" transform="translate(399,590)"/>
<path d="M0 0 C2.64 0 5.28 0 8 0 C8.38218767 1.65614657 8.71395102 3.32457024 9 5 C8 6 8 6 6.15234375 6.09765625 C4.1015625 6.06510417 2.05078125 6.03255208 0 6 C0 4.02 0 2.04 0 0 Z " fill="#F6F6F7" transform="translate(475,594)"/>
<path d="M0 0 C0.66 0.99 1.32 1.98 2 3 C0.58474822 4.58459815 -0.8322642 6.16762391 -2.25 7.75 C-3.43335938 9.07257813 -3.43335938 9.07257813 -4.640625 10.421875 C-6.70592672 12.67866165 -8.81735064 14.85739926 -11 17 C-10.54554036 15.58208592 -10.08625056 14.16571954 -9.625 12.75 C-9.24214844 11.56664062 -9.24214844 11.56664062 -8.8515625 10.359375 C-8.03744217 8.10373885 -7.24527876 6.05104738 -6 4 C-3.375 3.25 -3.375 3.25 -1 3 C-0.67 2.01 -0.34 1.02 0 0 Z " fill="#D8D7D8" transform="translate(316,237)"/>
<path d="M0 0 C1.65 0 3.3 0 5 0 C4.67 2.64 4.34 5.28 4 8 C2.02 8 0.04 8 -2 8 C-1.34 5.36 -0.68 2.72 0 0 Z " fill="#EAE8E4" transform="translate(371,339)"/>
<path d="M0 0 C3.63 0 7.26 0 11 0 C11 1.32 11 2.64 11 4 C7.37 4 3.74 4 0 4 C0 2.68 0 1.36 0 0 Z " fill="#F1EFF2" transform="translate(375,594)"/>
<path d="M0 0 C2 1 2 1 3.125 4.0625 C3.41375 5.031875 3.7025 6.00125 4 7 C1.125 7.1875 1.125 7.1875 -2 7 C-2.66 6.01 -3.32 5.02 -4 4 C-4.66 4 -5.32 4 -6 4 C-5.67 3.01 -5.34 2.02 -5 1 C-3 0 -3 0 0 0 Z " fill="#2C2C2B" transform="translate(505,596)"/>
<path d="M0 0 C4.455 0.99 4.455 0.99 9 2 C9.33 3.32 9.66 4.64 10 6 C7.36 6 4.72 6 2 6 C0 2.25 0 2.25 0 0 Z " fill="#ECEBEA" transform="translate(190,601)"/>
<path d="M0 0 C1.65 0 3.3 0 5 0 C4.67 1.98 4.34 3.96 4 6 C3.01 5.67 2.02 5.34 1 5 C0.01 7.31 -0.98 9.62 -2 12 C-2.66 12 -3.32 12 -4 12 C-2.66666667 8 -1.33333333 4 0 0 Z " fill="#1D1D1C" transform="translate(359,589)"/>
<path d="M0 0 C5.12583611 -0.10251672 9.94997778 -0.03590199 15 1 C13.68 1.33 12.36 1.66 11 2 C11 2.99 11 3.98 11 5 C8.36 4.67 5.72 4.34 3 4 C3 3.34 3 2.68 3 2 C2.01 1.34 1.02 0.68 0 0 Z " fill="#3E3F3E" transform="translate(313,310)"/>
<path d="M0 0 C-0.45082469 1.46067199 -0.91093537 2.91848032 -1.375 4.375 C-1.63023437 5.18710938 -1.88546875 5.99921875 -2.1484375 6.8359375 C-3 9 -3 9 -5 11 C-6.25 8.3125 -6.25 8.3125 -7 5 C-4.06521739 0 -4.06521739 0 0 0 Z " fill="#EAE8E8" transform="translate(303,241)"/>
<path d="M0 0 C0.33 0 0.66 0 1 0 C1.02683987 2.97922593 1.04676037 5.95821295 1.0625 8.9375 C1.07087891 9.78763672 1.07925781 10.63777344 1.08789062 11.51367188 C1.09111328 12.32255859 1.09433594 13.13144531 1.09765625 13.96484375 C1.10289307 14.7137085 1.10812988 15.46257324 1.11352539 16.23413086 C1 18 1 18 0 19 C-2.33297433 19.04092937 -4.66705225 19.04241723 -7 19 C-7 18.67 -7 18.34 -7 18 C-5.02 17.34 -3.04 16.68 -1 16 C-0.67 10.72 -0.34 5.44 0 0 Z " fill="#494748" transform="translate(458,589)"/>
<path d="M0 0 C2.78211944 0.37596209 4.5879284 0.67318459 6.8125 2.4375 C8 4 8 4 8 6 C5.6875 5.8125 5.6875 5.8125 3 5 C1.1875 2.4375 1.1875 2.4375 0 0 Z " fill="#E2DFDC" transform="translate(366,330)"/>
<path d="M0 0 C2.64 0.33 5.28 0.66 8 1 C8 2.32 8 3.64 8 5 C4.7 4.34 1.4 3.68 -2 3 C-1.34 2.67 -0.68 2.34 0 2 C0 1.34 0 0.68 0 0 Z " fill="#DFE3D9" transform="translate(295,312)"/>
<path d="M0 0 C2.64 0 5.28 0 8 0 C8 0.99 8 1.98 8 3 C5.36 3.33 2.72 3.66 0 4 C0 2.68 0 1.36 0 0 Z " fill="#0C0B0A" transform="translate(192,589)"/>
<path d="M0 0 C2 0.25 2 0.25 4 1 C4.33 1.99 4.66 2.98 5 4 C3.35 4.33 1.7 4.66 0 5 C-0.5625 3.0625 -0.5625 3.0625 -1 1 C-0.67 0.67 -0.34 0.34 0 0 Z " fill="#E7E6E8" transform="translate(287,603)"/>
<path d="M0 0 C0.66 0 1.32 0 2 0 C2.33 1.98 2.66 3.96 3 6 C1.35 6 -0.3 6 -2 6 C-1.34 4.02 -0.68 2.04 0 0 Z " fill="#DFDFE1" transform="translate(327,596)"/>
<path d="M0 0 C0.33 0.99 0.66 1.98 1 3 C-1.97 2.67 -4.94 2.34 -8 2 C-8 1.34 -8 0.68 -8 0 C-4.99727245 -0.96516243 -2.95784231 -1.22393475 0 0 Z " fill="#F7F5EE" transform="translate(374,318)"/>
<path d="M0 0 C-0.66 1.32 -1.32 2.64 -2 4 C-2.33 3.01 -2.66 2.02 -3 1 C-5.64 0.67 -8.28 0.34 -11 0 C-11 -0.33 -11 -0.66 -11 -1 C-3.375 -2.25 -3.375 -2.25 0 0 Z " fill="#4E4B51" transform="translate(486,594)"/>
<path d="M0 0 C1.65 0 3.3 0 5 0 C4.67 1.32 4.34 2.64 4 4 C2.68 3.67 1.36 3.34 0 3 C0 2.01 0 1.02 0 0 Z " fill="#CECDCE" transform="translate(288,593)"/>
<path d="M0 0 C0.66 0.33 1.32 0.66 2 1 C2.625 3.5625 2.625 3.5625 3 6 C1.68 6 0.36 6 -1 6 C-0.67 4.02 -0.34 2.04 0 0 Z " fill="#E6E6E8" transform="translate(505,596)"/>
<path d="M0 0 C2.62187494 1.04874998 3.79371361 1.64931313 5.25 4.125 C5.4975 4.74375 5.745 5.3625 6 6 C5.01 6.495 5.01 6.495 4 7 C0 2.25 0 2.25 0 0 Z " fill="#212121" transform="translate(258,590)"/>
<path d="M0 0 C1.98 0.495 1.98 0.495 4 1 C3.34 2.32 2.68 3.64 2 5 C1.01 4.67 0.02 4.34 -1 4 C-0.67 2.68 -0.34 1.36 0 0 Z " fill="#1D1C1B" transform="translate(200,590)"/>
<path d="M0 0 C0.99 0.99 1.98 1.98 3 3 C2.67 3.99 2.34 4.98 2 6 C0.68 5.34 -0.64 4.68 -2 4 C-1.34 2.68 -0.68 1.36 0 0 Z " fill="#EAEAE9" transform="translate(466,538)"/>
</svg>
