<?xml version="1.0" standalone="no"?>
<!DOCTYPE svg PUBLIC "-//W3C//DTD SVG 20010904//EN"
 "http://www.w3.org/TR/2001/REC-SVG-20010904/DTD/svg10.dtd">
<svg version="1.0" xmlns="http://www.w3.org/2000/svg"
 width="500.000000pt" height="500.000000pt" viewBox="0 0 500.000000 500.000000"
 preserveAspectRatio="xMidYMid meet">

<g transform="translate(0.000000,500.000000) scale(0.100000,-0.100000)"
fill="#000000" stroke="none">
<path d="M2148 4096 c-115 -31 -199 -144 -197 -263 1 -110 52 -193 149 -242
l63 -31 336 0 336 0 60 29 c64 30 102 67 137 135 26 50 28 152 4 209 -24 54
-82 114 -140 145 l-51 27 -325 2 c-241 2 -337 -1 -372 -11z"/>
<path d="M1672 3841 c-142 -85 -214 -142 -332 -260 -238 -240 -390 -545 -445
-896 -14 -86 -16 -147 -12 -280 9 -263 48 -417 167 -660 158 -321 391 -557
710 -723 143 -75 258 -115 415 -147 427 -87 864 -3 1220 233 392 260 649 669
716 1139 7 50 9 151 7 255 -7 263 -49 430 -169 673 -103 211 -245 388 -427
535 -76 61 -261 180 -280 180 -4 0 -13 -41 -19 -90 -9 -67 -21 -110 -48 -166
-20 -42 -35 -77 -33 -79 2 -1 44 -30 94 -64 342 -228 546 -615 546 -1036 0
-703 -571 -1267 -1282 -1267 -351 0 -658 127 -913 380 -187 184 -309 420 -353
682 -22 135 -16 356 15 487 74 323 267 595 554 782 37 24 67 45 67 47 0 2 -11
19 -25 39 -41 62 -65 139 -65 215 0 52 -3 70 -13 70 -8 0 -50 -22 -95 -49z"/>
<path d="M1781 2934 c-144 -42 -174 -229 -49 -312 l42 -27 725 0 c669 0 728 1
758 17 94 52 119 186 49 266 -60 68 -27 65 -791 67 -539 2 -700 -1 -734 -11z"/>
<path d="M2450 2250 l-685 -5 -36 -23 c-49 -30 -84 -108 -75 -166 10 -59 43
-106 91 -127 39 -17 84 -19 758 -19 801 -1 764 -4 813 69 38 59 41 116 7 181
-32 62 -68 85 -143 91 -25 2 -353 2 -730 -1z"/>
</g>
</svg>
